# xmcd
#
# Track frame offsets:
#	150
#	20540
#	34334
#	53357
#	62703
#	75840
#	89082
#	108994
#	122517
#	134745
#	151003
#
# Disc length: 2187 seconds
#
# Revision: 0
# Processed by: cddbd v1.5.1PL0 Copyright (c) Steve Scherf et al.
# Submitted via: audiograbber 1.83.01
#
DISCID=8308890b
DTITLE=Al Hughes - Conversations With The Blues
DYEAR=2001
DGENRE=Blues
TTITLE0=All This Time
TTITLE1=Talking To The Blues
TTITLE2=Feel Like Robert Johnson (Part 2)
TTITLE3=Big Girls Blues
TTITLE4=Sooner Than Say Goodbye
TTITLE5=TV Mama
TTITLE6=Where White Men Sing The Blues
TTITLE7=I Got Lucky
TTITLE8=Low Fat Rag
TTITLE9=Silicone City Blues
TTITLE10=All We Can Do Is Try
EXTD=http://www.al-hughes.com
EXTT0=
EXTT1=
EXTT2=
EXTT3=
EXTT4=
EXTT5=
EXTT6=
EXTT7=
EXTT8=
EXTT9=
EXTT10=
PLAYORDER=
